<?xml version="1.0" encoding="UTF-8" standalone="no"?>
<!-- Created with Inkscape (http://www.inkscape.org/) -->

<svg
   width="39.127495mm"
   height="77.361481mm"
   viewBox="0 0 39.127495 77.361481"
   version="1.1"
   id="svg279"
   inkscape:version="1.2.2 (732a01da63, 2022-12-09)"
   sodipodi:docname="screen-spark-flame.svg"
   xmlns:inkscape="http://www.inkscape.org/namespaces/inkscape"
   xmlns:sodipodi="http://sodipodi.sourceforge.net/DTD/sodipodi-0.dtd"
   xmlns="http://www.w3.org/2000/svg"
   xmlns:svg="http://www.w3.org/2000/svg">
  <sodipodi:namedview
     id="namedview281"
     pagecolor="#ffffff"
     bordercolor="#000000"
     borderopacity="0.25"
     inkscape:showpageshadow="2"
     inkscape:pageopacity="0.0"
     inkscape:pagecheckerboard="true"
     inkscape:deskcolor="#d1d1d1"
     inkscape:document-units="mm"
     showgrid="false"
     inkscape:zoom="2.9469416"
     inkscape:cx="33.424483"
     inkscape:cy="166.10441"
     inkscape:window-width="1920"
     inkscape:window-height="1002"
     inkscape:window-x="-8"
     inkscape:window-y="-8"
     inkscape:window-maximized="1"
     inkscape:current-layer="layer1" />
  <defs
     id="defs276">
    <inkscape:path-effect
       effect="skeletal"
       id="path-effect3768"
       is_visible="true"
       lpeversion="1"
       pattern="m 7.3120138,15.981258 c 0,0 12.0809732,-8.3101162 22.8548562,-8.3101162 10.773883,0 22.854856,8.3101162 22.854856,8.3101162 0,0 -12.080974,8.310117 -22.854856,8.310117 -10.773882,0 -22.8548562,-8.310117 -22.8548562,-8.310117 z"
       copytype="single_stretched"
       prop_scale="1"
       scale_y_rel="false"
       spacing="0"
       normal_offset="0"
       tang_offset="0"
       prop_units="false"
       vertical_pattern="false"
       hide_knot="false"
       fuse_tolerance="0" />
    <inkscape:path-effect
       effect="spiro"
       id="path-effect3764"
       is_visible="true"
       lpeversion="1" />
    <inkscape:path-effect
       effect="skeletal"
       id="path-effect3758"
       is_visible="true"
       lpeversion="1"
       pattern="m 7.3120138,15.981258 c 0,0 12.0809732,-8.3101162 22.8548562,-8.3101162 10.773883,0 22.854856,8.3101162 22.854856,8.3101162 0,0 -12.080974,8.310117 -22.854856,8.310117 -10.773882,0 -22.8548562,-8.310117 -22.8548562,-8.310117 z"
       copytype="single_stretched"
       prop_scale="1"
       scale_y_rel="false"
       spacing="0"
       normal_offset="0"
       tang_offset="0"
       prop_units="false"
       vertical_pattern="false"
       hide_knot="false"
       fuse_tolerance="0" />
    <inkscape:path-effect
       effect="spiro"
       id="path-effect3754"
       is_visible="true"
       lpeversion="1" />
    <inkscape:path-effect
       effect="skeletal"
       id="path-effect3748"
       is_visible="true"
       lpeversion="1"
       pattern="m 7.3120138,15.981258 c 0,0 12.0809732,-8.3101162 22.8548562,-8.3101162 10.773883,0 22.854856,8.3101162 22.854856,8.3101162 0,0 -12.080974,8.310117 -22.854856,8.310117 -10.773882,0 -22.8548562,-8.310117 -22.8548562,-8.310117 z"
       copytype="single_stretched"
       prop_scale="1"
       scale_y_rel="false"
       spacing="0"
       normal_offset="0"
       tang_offset="0"
       prop_units="false"
       vertical_pattern="false"
       hide_knot="false"
       fuse_tolerance="0" />
    <inkscape:path-effect
       effect="spiro"
       id="path-effect3733"
       is_visible="true"
       lpeversion="1" />
    <inkscape:path-effect
       effect="skeletal"
       id="path-effect3596"
       is_visible="true"
       lpeversion="1"
       pattern="m 7.3120138,15.981258 c 0,0 12.0809732,-8.3101162 22.8548562,-8.3101162 10.773883,0 22.854856,8.3101162 22.854856,8.3101162 0,0 -12.080974,8.310117 -22.854856,8.310117 -10.773882,0 -22.8548562,-8.310117 -22.8548562,-8.310117 z"
       copytype="single_stretched"
       prop_scale="1"
       scale_y_rel="false"
       spacing="0"
       normal_offset="0"
       tang_offset="0"
       prop_units="false"
       vertical_pattern="false"
       hide_knot="false"
       fuse_tolerance="0" />
    <inkscape:path-effect
       effect="spiro"
       id="path-effect3581"
       is_visible="true"
       lpeversion="1" />
    <inkscape:path-effect
       effect="skeletal"
       id="path-effect779"
       is_visible="true"
       lpeversion="1"
       pattern="m 19.425608,18.190988 c 0,0 12.121994,-7.858712 22.932459,-7.858712 10.659271,0 22.611728,7.7488 22.611728,7.7488 0,0 -12.121993,7.858714 -22.93246,7.858713 -10.659269,10e-7 -22.611727,-7.748801 -22.611727,-7.748801 z"
       copytype="single_stretched"
       prop_scale="1"
       scale_y_rel="false"
       spacing="0"
       normal_offset="0"
       tang_offset="0"
       prop_units="false"
       vertical_pattern="false"
       hide_knot="false"
       fuse_tolerance="0" />
    <inkscape:path-effect
       effect="spiro"
       id="path-effect775"
       is_visible="true"
       lpeversion="1" />
    <inkscape:path-effect
       effect="skeletal"
       id="path-effect769"
       is_visible="true"
       lpeversion="1"
       pattern="m 19.425608,18.190988 c 0,0 12.121994,-7.858712 22.932459,-7.858712 10.659271,0 22.611728,7.7488 22.611728,7.7488 0,0 -12.121993,7.858714 -22.93246,7.858713 -10.659269,10e-7 -22.611727,-7.748801 -22.611727,-7.748801 z"
       copytype="single_stretched"
       prop_scale="1"
       scale_y_rel="false"
       spacing="0"
       normal_offset="0"
       tang_offset="0"
       prop_units="false"
       vertical_pattern="false"
       hide_knot="false"
       fuse_tolerance="0" />
    <inkscape:path-effect
       effect="spiro"
       id="path-effect754"
       is_visible="true"
       lpeversion="1" />
    <inkscape:path-effect
       effect="skeletal"
       id="path-effect465"
       is_visible="true"
       lpeversion="1"
       pattern="m 19.425608,18.190988 c 0,0 12.121994,-7.858712 22.932459,-7.858712 10.659271,0 22.611728,7.7488 22.611728,7.7488 0,0 -12.121993,7.858714 -22.93246,7.858713 -10.659269,10e-7 -22.611727,-7.748801 -22.611727,-7.748801 z"
       copytype="single_stretched"
       prop_scale="1"
       scale_y_rel="false"
       spacing="0"
       normal_offset="0"
       tang_offset="0"
       prop_units="false"
       vertical_pattern="false"
       hide_knot="false"
       fuse_tolerance="0" />
    <inkscape:path-effect
       effect="spiro"
       id="path-effect450"
       is_visible="true"
       lpeversion="1" />
    <inkscape:path-effect
       effect="skeletal"
       id="path-effect446"
       is_visible="true"
       lpeversion="1"
       pattern="m 19.425608,18.190988 c 0,0 12.121994,-7.858712 22.932459,-7.858712 10.659271,0 22.611728,7.7488 22.611728,7.7488 0,0 -12.121993,7.858714 -22.93246,7.858713 -10.659269,10e-7 -22.611727,-7.748801 -22.611727,-7.748801 z"
       copytype="single_stretched"
       prop_scale="1"
       scale_y_rel="false"
       spacing="0"
       normal_offset="0"
       tang_offset="0"
       prop_units="false"
       vertical_pattern="false"
       hide_knot="false"
       fuse_tolerance="0" />
    <inkscape:path-effect
       effect="spiro"
       id="path-effect431"
       is_visible="true"
       lpeversion="1" />
  </defs>
  <g
     inkscape:label="Layer 1"
     inkscape:groupmode="layer"
     id="layer1"
     transform="translate(-28.54658,-57.286252)">
    <g
       id="g9189"
       style="fill:#5dacbd;fill-opacity:0.5">
      <path
         style="fill:#5dacbd;fill-opacity:0.5;stroke-width:0.264583"
         d="m 8.259976,60.692865 c 0,0 1.5807514,1.057332 4.320325,2.160081 2.788696,1.122521 6.541777,2.11271 10.712059,1.985262 4.31783,-0.120396 8.649769,-1.407539 12.264539,-3.514893 0,0 2e-6,-10e-7 2e-6,-10e-7 1.855345,-1.012905 3.831396,-2.480797 6.194855,-3.989043 0.316734,-0.202125 0.641579,-0.405788 0.97467,-0.610079 2.78736,-1.794227 6.196216,-3.68871 10.218374,-5.066297 6.731105,-2.226317 13.327495,-1.84395 18.631773,-0.171129 5.128687,1.622454 8.69193,4.311084 10.840547,6.371431 2.166998,2.077974 3.055698,3.552944 3.055698,3.552944 0,0 -1.656386,-0.527974 -4.38629,-0.925613 -2.781146,-0.405104 -6.427291,-0.577639 -10.404773,0.173115 -4.080145,0.765166 -8.080644,2.409507 -11.578187,4.759638 -2.139938,1.377867 -4.430743,3.299999 -7.290643,5.199163 -0.333017,0.231362 -0.674021,0.46191 -1.023595,0.690719 -2.610735,1.708821 -5.784834,3.374063 -9.492541,4.555946 0,0 -4e-6,0 -4e-6,0 C 33.757186,78.153617 26.402882,77.026174 20.810714,74.313582 15.490116,71.720248 12.267146,67.987504 10.514239,65.267501 8.7393887,62.513448 8.259976,60.692865 8.259976,60.692865 Z"
         id="path3731"
         inkscape:path-effect="#path-effect3733;#path-effect3748"
         inkscape:original-d="m 8.2599757,60.692865 c 10.9761553,-2.168374 19.0312733,11.612711 30.1668693,7.900847 6.983891,-2.327965 10.852747,-8.369477 17.597339,-10.055624 10.504921,-2.62623 19.338054,1.861981 29.448609,2.873036"
         class="UnoptimicedTransforms"
         transform="rotate(-89.051163,67.067947,75.929009)" />
      <path
         style="fill:#5dacbd;fill-opacity:0.5;stroke-width:0.264583"
         d="m 8.259976,60.692865 c 0,0 1.5807514,1.057332 4.320325,2.160081 2.788696,1.122521 6.541777,2.11271 10.712059,1.985262 4.31783,-0.120396 8.649769,-1.407539 12.264539,-3.514893 0,0 2e-6,-10e-7 2e-6,-10e-7 1.855345,-1.012905 3.831396,-2.480797 6.194855,-3.989043 0.316734,-0.202125 0.641579,-0.405788 0.97467,-0.610079 2.78736,-1.794227 6.196216,-3.68871 10.218374,-5.066297 6.731105,-2.226317 13.327495,-1.84395 18.631773,-0.171129 5.128687,1.622454 8.69193,4.311084 10.840547,6.371431 2.166998,2.077974 3.055698,3.552944 3.055698,3.552944 0,0 -1.656386,-0.527974 -4.38629,-0.925613 -2.781146,-0.405104 -6.427291,-0.577639 -10.404773,0.173115 -4.080145,0.765166 -8.080644,2.409507 -11.578187,4.759638 -2.139938,1.377867 -4.430743,3.299999 -7.290643,5.199163 -0.333017,0.231362 -0.674021,0.46191 -1.023595,0.690719 -2.610735,1.708821 -5.784834,3.374063 -9.492541,4.555946 0,0 -4e-6,0 -4e-6,0 C 33.757186,78.153617 26.402882,77.026174 20.810714,74.313582 15.490116,71.720248 12.267146,67.987504 10.514239,65.267501 8.7393887,62.513448 8.259976,60.692865 8.259976,60.692865 Z"
         id="path3750"
         inkscape:path-effect="#path-effect3754;#path-effect3758"
         inkscape:original-d="m 8.2599757,60.692865 c 10.9761553,-2.168374 19.0312733,11.612711 30.1668693,7.900847 6.983891,-2.327965 10.852747,-8.369477 17.597339,-10.055624 10.504921,-2.62623 19.338054,1.861981 29.448609,2.873036"
         class="UnoptimicedTransforms"
         transform="matrix(-0.10400709,-0.72623351,-0.6718638,0.11242373,83.73695,133.68418)" />
    </g>
    <path
       style="fill:#5dacbd;fill-opacity:1;stroke-width:0.264583"
       d="m 8.259976,60.692865 c 0,0 1.5807514,1.057332 4.320325,2.160081 2.788696,1.122521 6.541777,2.11271 10.712059,1.985262 4.31783,-0.120396 8.649769,-1.407539 12.264539,-3.514893 0,0 2e-6,-10e-7 2e-6,-10e-7 1.855345,-1.012905 3.831396,-2.480797 6.194855,-3.989043 0.316734,-0.202125 0.641579,-0.405788 0.97467,-0.610079 2.78736,-1.794227 6.196216,-3.68871 10.218374,-5.066297 6.731105,-2.226317 13.327495,-1.84395 18.631773,-0.171129 5.128687,1.622454 8.69193,4.311084 10.840547,6.371431 2.166998,2.077974 3.055698,3.552944 3.055698,3.552944 0,0 -1.656386,-0.527974 -4.38629,-0.925613 -2.781146,-0.405104 -6.427291,-0.577639 -10.404773,0.173115 -4.080145,0.765166 -8.080644,2.409507 -11.578187,4.759638 -2.139938,1.377867 -4.430743,3.299999 -7.290643,5.199163 -0.333017,0.231362 -0.674021,0.46191 -1.023595,0.690719 -2.610735,1.708821 -5.784834,3.374063 -9.492541,4.555946 0,0 -4e-6,0 -4e-6,0 C 33.757186,78.153617 26.402882,77.026174 20.810714,74.313582 15.490116,71.720248 12.267146,67.987504 10.514239,65.267501 8.7393887,62.513448 8.259976,60.692865 8.259976,60.692865 Z"
       id="path3760"
       inkscape:path-effect="#path-effect3764;#path-effect3768"
       inkscape:original-d="m 8.2599757,60.692865 c 10.9761553,-2.168374 19.0312733,11.612711 30.1668693,7.900847 6.983891,-2.327965 10.852747,-8.369477 17.597339,-10.055624 10.504921,-2.62623 19.338054,1.861981 29.448609,2.873036"
       class="UnoptimicedTransforms"
       transform="matrix(0.01409343,-0.7073822,0.85095773,0.01171554,-1.4962688,139.77964)" />
  </g>
</svg>
